<svg xmlns="http://www.w3.org/2000/svg" xmlns:xlink="http://www.w3.org/1999/xlink" width="500" zoomAndPan="magnify" viewBox="0 0 375 374.999991" height="500" preserveAspectRatio="xMidYMid meet" version="1.0"><defs><g/><clipPath id="43fb11a540"><path d="M 145.996094 149.433594 L 234.496094 149.433594 L 234.496094 237.933594 L 145.996094 237.933594 Z M 145.996094 149.433594 " clip-rule="nonzero"/></clipPath><clipPath id="f2bf465247"><path d="M 145.996094 145.28125 L 230.746094 145.28125 L 230.746094 230.03125 L 145.996094 230.03125 Z M 145.996094 145.28125 " clip-rule="nonzero"/></clipPath></defs><g clip-path="url(#43fb11a540)"><path fill="#cb6ce6" d="M 190.246094 149.433594 C 165.808594 149.433594 145.996094 169.246094 145.996094 193.683594 C 145.996094 218.121094 165.808594 237.933594 190.246094 237.933594 C 214.683594 237.933594 234.496094 218.121094 234.496094 193.683594 C 234.496094 169.246094 214.683594 149.433594 190.246094 149.433594 " fill-opacity="1" fill-rule="nonzero"/></g><g clip-path="url(#f2bf465247)"><path fill="#ffffff" d="M 188.371094 145.28125 C 164.96875 145.28125 145.996094 164.253906 145.996094 187.65625 C 145.996094 211.058594 164.96875 230.03125 188.371094 230.03125 C 211.773438 230.03125 230.746094 211.058594 230.746094 187.65625 C 230.746094 164.253906 211.773438 145.28125 188.371094 145.28125 " fill-opacity="1" fill-rule="nonzero"/></g><g fill="#cb6ce6" fill-opacity="1"><g transform="translate(29.661149, 201.797653)"><g><path d="M 3.464844 0 L 6.929688 0 C 7.472656 0 7.921875 -0.445312 7.921875 -0.988281 L 7.921875 -29.800781 C 7.921875 -30.34375 8.167969 -30.640625 8.414062 -30.640625 C 8.664062 -30.640625 8.910156 -30.441406 9.109375 -30.097656 L 24.058594 -2.375 C 24.207031 -2.078125 24.503906 -1.882812 24.847656 -1.882812 L 29.007812 -1.980469 C 29.304688 -1.980469 29.601562 -2.179688 29.75 -2.425781 L 44.648438 -30.097656 C 44.847656 -30.441406 45.09375 -30.640625 45.34375 -30.640625 C 45.589844 -30.640625 45.835938 -30.34375 45.835938 -29.800781 L 45.835938 -0.988281 C 45.835938 -0.445312 46.28125 0 46.828125 0 L 50.292969 0 C 50.835938 0 51.28125 -0.445312 51.28125 -0.988281 L 51.28125 -41.132812 C 51.28125 -41.679688 50.835938 -42.125 50.292969 -42.125 L 45.539062 -42.125 C 45.242188 -42.125 44.898438 -41.976562 44.746094 -41.679688 L 27.570312 -9.800781 C 27.375 -9.453125 27.125 -9.257812 26.878906 -9.257812 C 26.632812 -9.257812 26.382812 -9.453125 26.183594 -9.800781 L 9.007812 -41.679688 C 8.859375 -41.976562 8.515625 -42.125 8.21875 -42.125 L 3.464844 -42.125 C 2.921875 -42.125 2.476562 -41.679688 2.476562 -41.132812 L 2.476562 -0.988281 C 2.476562 -0.445312 2.921875 0 3.464844 0 Z M 3.464844 0 "/></g></g></g><g fill="#cb6ce6" fill-opacity="1"><g transform="translate(86.883132, 201.797653)"><g><path d="M 16.085938 0 L 21.039062 0 C 29.007812 0 34.898438 -5.890625 34.898438 -13.859375 L 34.898438 -28.214844 C 34.898438 -36.136719 28.957031 -42.074219 21.039062 -42.074219 L 16.085938 -42.074219 C 8.167969 -42.074219 2.226562 -36.136719 2.226562 -28.214844 L 2.226562 -13.859375 C 2.226562 -5.941406 8.167969 0 16.085938 0 Z M 16.085938 -5.445312 C 11.1875 -5.445312 7.671875 -8.910156 7.671875 -13.859375 L 7.671875 -28.214844 C 7.671875 -33.117188 11.136719 -36.628906 16.085938 -36.628906 L 21.039062 -36.628906 C 25.9375 -36.628906 29.453125 -33.164062 29.453125 -28.214844 L 29.453125 -13.859375 C 29.453125 -8.859375 25.988281 -5.445312 21.039062 -5.445312 Z M 16.085938 -5.445312 "/></g></g></g><g fill="#cb6ce6" fill-opacity="1"><g transform="translate(127.47312, 201.797653)"><g><path d="M 12.820312 0 L 24.304688 0 C 30.34375 0 34.898438 -4.554688 34.898438 -10.59375 L 34.898438 -13.316406 C 34.898438 -18.363281 31.53125 -22.375 26.53125 -23.316406 L 11.582031 -26.035156 C 9.207031 -26.433594 7.671875 -28.3125 7.671875 -30.738281 L 7.671875 -31.925781 C 7.671875 -34.699219 9.75 -36.628906 12.820312 -36.628906 L 24.304688 -36.628906 C 27.375 -36.628906 29.453125 -34.550781 29.453125 -31.480469 L 29.453125 -30.046875 C 29.453125 -29.550781 29.847656 -29.15625 30.34375 -29.15625 L 34.007812 -29.15625 C 34.5 -29.15625 34.898438 -29.550781 34.898438 -30.046875 L 34.898438 -31.480469 C 34.898438 -37.519531 30.34375 -42.074219 24.304688 -42.074219 L 12.820312 -42.074219 C 6.78125 -42.074219 2.226562 -37.71875 2.226562 -31.925781 L 2.226562 -30.738281 C 2.226562 -25.691406 5.691406 -21.53125 10.59375 -20.691406 L 25.542969 -17.96875 C 27.96875 -17.523438 29.453125 -15.742188 29.453125 -13.316406 L 29.453125 -10.59375 C 29.453125 -7.523438 27.375 -5.445312 24.304688 -5.445312 L 12.820312 -5.445312 C 9.75 -5.445312 7.671875 -7.027344 7.671875 -9.15625 L 7.671875 -12.027344 C 7.671875 -12.523438 7.277344 -12.917969 6.78125 -12.917969 L 3.117188 -12.917969 C 2.625 -12.917969 2.226562 -12.523438 2.226562 -12.027344 L 2.226562 -9.15625 C 2.226562 -3.910156 6.78125 0 12.820312 0 Z M 12.820312 0 "/></g></g></g><g fill="#cb6ce6" fill-opacity="1"><g transform="translate(168.063102, 201.797653)"><g><path d="M 1.1875 0 L 4.949219 0 C 5.496094 0 5.890625 -0.296875 6.089844 -0.792969 L 9.058594 -8.316406 C 9.257812 -8.8125 9.652344 -9.109375 10.195312 -9.109375 L 29.402344 -9.109375 C 29.949219 -9.109375 30.34375 -8.8125 30.542969 -8.316406 L 33.511719 -0.792969 C 33.710938 -0.296875 34.105469 0 34.648438 0 L 38.410156 0 C 39.007812 0 39.304688 -0.246094 39.304688 -0.691406 C 39.304688 -0.839844 39.253906 -0.988281 39.203125 -1.136719 L 23.414062 -41.28125 C 23.214844 -41.777344 22.820312 -42.074219 22.273438 -42.074219 L 17.324219 -42.074219 C 16.78125 -42.074219 16.382812 -41.777344 16.1875 -41.28125 L 0.394531 -1.136719 C 0.347656 -0.988281 0.296875 -0.839844 0.296875 -0.691406 C 0.296875 -0.246094 0.59375 0 1.1875 0 Z M 12.722656 -14.554688 C 12.128906 -14.554688 11.832031 -14.800781 11.832031 -15.246094 C 11.832031 -15.394531 11.878906 -15.542969 11.929688 -15.691406 L 19.15625 -34.054688 C 19.355469 -34.5 19.550781 -34.699219 19.800781 -34.699219 C 20.046875 -34.699219 20.296875 -34.5 20.445312 -34.054688 L 27.671875 -15.691406 C 27.71875 -15.542969 27.769531 -15.394531 27.769531 -15.246094 C 27.769531 -14.800781 27.472656 -14.554688 26.878906 -14.554688 Z M 12.722656 -14.554688 "/></g></g></g><g fill="#cb6ce6" fill-opacity="1"><g transform="translate(211.128087, 201.797653)"><g><path d="M 2.226562 0 L 17.574219 0 C 18.117188 0 18.5625 -0.445312 18.5625 -0.988281 L 18.5625 -4.453125 C 18.5625 -5 18.117188 -5.445312 17.574219 -5.445312 L 13.613281 -5.445312 C 12.96875 -5.445312 12.621094 -5.792969 12.621094 -6.433594 L 12.621094 -35.640625 C 12.621094 -36.285156 12.96875 -36.628906 13.613281 -36.628906 L 17.574219 -36.628906 C 18.117188 -36.628906 18.5625 -37.074219 18.5625 -37.621094 L 18.5625 -41.085938 C 18.5625 -41.628906 18.117188 -42.074219 17.574219 -42.074219 L 2.226562 -42.074219 C 1.683594 -42.074219 1.238281 -41.628906 1.238281 -41.085938 L 1.238281 -37.621094 C 1.238281 -37.074219 1.683594 -36.628906 2.226562 -36.628906 L 6.1875 -36.628906 C 6.832031 -36.628906 7.175781 -36.285156 7.175781 -35.640625 L 7.175781 -6.433594 C 7.175781 -5.792969 6.832031 -5.445312 6.1875 -5.445312 L 2.226562 -5.445312 C 1.683594 -5.445312 1.238281 -5 1.238281 -4.453125 L 1.238281 -0.988281 C 1.238281 -0.445312 1.683594 0 2.226562 0 Z M 2.226562 0 "/></g></g></g><g fill="#cb6ce6" fill-opacity="1"><g transform="translate(234.393077, 201.797653)"><g><path d="M 16.085938 0 L 21.039062 0 C 23.613281 0 26.035156 -0.644531 28.066406 -1.78125 C 28.265625 -1.882812 28.460938 -1.929688 28.660156 -1.929688 C 28.957031 -1.929688 29.203125 -1.832031 29.453125 -1.585938 L 30.542969 -0.496094 C 30.9375 -0.0976562 31.234375 0 31.730469 0 L 37.027344 0 C 37.570312 0 37.867188 -0.246094 37.867188 -0.59375 C 37.867188 -0.792969 37.769531 -0.988281 37.519531 -1.238281 L 33.3125 -5.445312 C 33.066406 -5.691406 32.96875 -5.941406 32.96875 -6.238281 C 32.96875 -6.433594 33.015625 -6.632812 33.117188 -6.832031 C 34.253906 -8.859375 34.898438 -11.285156 34.898438 -13.859375 L 34.898438 -28.214844 C 34.898438 -36.136719 28.957031 -42.074219 21.039062 -42.074219 L 16.085938 -42.074219 C 8.167969 -42.074219 2.226562 -36.136719 2.226562 -28.214844 L 2.226562 -13.859375 C 2.226562 -5.941406 8.167969 0 16.085938 0 Z M 16.085938 -5.445312 C 11.1875 -5.445312 7.671875 -8.910156 7.671875 -13.859375 L 7.671875 -28.214844 C 7.671875 -33.117188 11.136719 -36.628906 16.085938 -36.628906 L 21.039062 -36.628906 C 25.9375 -36.628906 29.453125 -33.164062 29.453125 -28.214844 L 29.453125 -13.859375 C 29.453125 -12.96875 29.351562 -12.078125 29.105469 -11.285156 C 29.007812 -10.839844 28.757812 -10.640625 28.460938 -10.640625 C 28.214844 -10.640625 28.015625 -10.742188 27.769531 -10.988281 L 23.464844 -15.296875 C 23.117188 -15.640625 22.769531 -15.789062 22.273438 -15.789062 L 16.976562 -15.789062 C 16.433594 -15.789062 16.136719 -15.542969 16.136719 -15.195312 C 16.136719 -15 16.234375 -14.800781 16.484375 -14.554688 L 23.910156 -7.128906 C 24.15625 -6.878906 24.253906 -6.683594 24.253906 -6.433594 C 24.253906 -6.136719 24.058594 -5.890625 23.613281 -5.792969 C 22.820312 -5.542969 21.929688 -5.445312 21.039062 -5.445312 Z M 16.085938 -5.445312 "/></g></g></g><g fill="#cb6ce6" fill-opacity="1"><g transform="translate(275.230561, 201.797653)"><g><path d="M 16.335938 0 L 21.285156 0 C 29.253906 0 35.144531 -5.890625 35.144531 -13.859375 L 35.144531 -41.085938 C 35.144531 -41.726562 34.796875 -42.074219 34.15625 -42.074219 L 30.691406 -42.074219 C 30.046875 -42.074219 29.699219 -41.726562 29.699219 -41.085938 L 29.699219 -13.859375 C 29.699219 -8.859375 26.234375 -5.445312 21.285156 -5.445312 L 16.335938 -5.445312 C 11.433594 -5.445312 7.921875 -8.910156 7.921875 -13.859375 L 7.921875 -41.085938 C 7.921875 -41.726562 7.574219 -42.074219 6.929688 -42.074219 L 3.464844 -42.074219 C 2.820312 -42.074219 2.476562 -41.726562 2.476562 -41.085938 L 2.476562 -13.859375 C 2.476562 -5.941406 8.414062 0 16.335938 0 Z M 16.335938 0 "/></g></g></g><g fill="#cb6ce6" fill-opacity="1"><g transform="translate(316.315557, 201.797653)"><g><path d="M 3.464844 0 L 31.433594 0 C 31.976562 0 32.421875 -0.445312 32.421875 -0.988281 L 32.421875 -4.453125 C 32.421875 -5 31.976562 -5.445312 31.433594 -5.445312 L 8.910156 -5.445312 C 8.367188 -5.445312 7.921875 -5.890625 7.921875 -6.433594 L 7.921875 -17.324219 C 7.921875 -17.871094 8.367188 -18.316406 8.910156 -18.316406 L 29.949219 -18.316406 C 30.492188 -18.316406 30.9375 -18.761719 30.9375 -19.304688 L 30.9375 -22.769531 C 30.9375 -23.316406 30.492188 -23.761719 29.949219 -23.761719 L 8.910156 -23.761719 C 8.367188 -23.761719 7.921875 -24.207031 7.921875 -24.75 L 7.921875 -35.640625 C 7.921875 -36.183594 8.367188 -36.628906 8.910156 -36.628906 L 31.433594 -36.628906 C 31.976562 -36.628906 32.421875 -37.074219 32.421875 -37.621094 L 32.421875 -41.085938 C 32.421875 -41.628906 31.976562 -42.074219 31.433594 -42.074219 L 3.464844 -42.074219 C 2.921875 -42.074219 2.476562 -41.628906 2.476562 -41.085938 L 2.476562 -0.988281 C 2.476562 -0.445312 2.921875 0 3.464844 0 Z M 3.464844 0 "/></g></g></g></svg>